<svg width="1000px" height="1000px" viewBox="0 0 48 48" id="b" xmlns="http://www.w3.org/2000/svg">
  <defs>
    <style>.c{fill:none;stroke:white;stroke-linecap:round;stroke-linejoin:round;stroke-width:3;}</style>
  </defs>
  <g>
    <polyline class="c" points="31.1909 19.7988 27.8429 27.7988 24.4949 19.7988"/>
    <polyline class="c" points="31.5332 26.2012 34.8812 18.2012 38.2292 26.2012"/>
    <g>
      <path class="c" d="m20.6829,23.7988c1.1046,0,2,.8954,2,2s-.8954,2-2,2h-3.3v-8h3.3c1.1046,0,2,.8954,2,2s-.8954,2-2,2h0Z"/>
      <line class="c" x1="20.6829" y1="23.7988" x2="17.3829" y2="23.7988"/>
    </g>
    <g>
      <path class="c" d="m13.0708,23.7988c1.1046,0,2,.8954,2,2s-.8954,2-2,2h-3.3v-8h3.3c1.1046,0,2,.8954,2,2s-.8954,2-2,2h0Z"/>
      <line class="c" x1="13.0708" y1="23.7988" x2="9.7708" y2="23.7988"/>
    </g>
  </g>
</svg>
